<mxfile host="Electron" modified="2024-02-23T14:07:26.988Z" agent="Mozilla/5.0 (Macintosh; Intel Mac OS X 10_15_7) AppleWebKit/537.36 (KHTML, like Gecko) draw.io/23.1.5 Chrome/120.0.6099.109 Electron/28.1.0 Safari/537.36" etag="SvMyqg5FOEIhOriaaMVx" version="23.1.5" type="device">
  <diagram name="Page-1" id="hwi7yDisU9GN3pxTbyzM">
    <mxGraphModel dx="1185" dy="439" grid="1" gridSize="10" guides="1" tooltips="1" connect="1" arrows="1" fold="1" page="1" pageScale="1" pageWidth="850" pageHeight="1100" math="0" shadow="0">
      <root>
        <mxCell id="0" />
        <mxCell id="1" parent="0" />
        <mxCell id="8-o7jdIBJL7mRIRe1M3B-11" value="" style="rounded=0;whiteSpace=wrap;html=1;fillColor=#dae8fc;strokeColor=#161543;" vertex="1" parent="1">
          <mxGeometry x="87.5" y="250" width="630" height="250" as="geometry" />
        </mxCell>
        <mxCell id="8-o7jdIBJL7mRIRe1M3B-10" value="AWS Cloud" style="points=[[0,0],[0.25,0],[0.5,0],[0.75,0],[1,0],[1,0.25],[1,0.5],[1,0.75],[1,1],[0.75,1],[0.5,1],[0.25,1],[0,1],[0,0.75],[0,0.5],[0,0.25]];outlineConnect=0;html=1;whiteSpace=wrap;fontSize=12;fontStyle=0;container=1;pointerEvents=0;collapsible=0;recursiveResize=0;shape=mxgraph.aws4.group;grIcon=mxgraph.aws4.group_aws_cloud_alt;verticalAlign=top;align=left;spacingLeft=30;dashed=0;" vertex="1" parent="1">
          <mxGeometry x="105" y="300" width="595" height="182" as="geometry" />
        </mxCell>
        <mxCell id="8-o7jdIBJL7mRIRe1M3B-18" value="2" style="ellipse;whiteSpace=wrap;html=1;aspect=fixed;fillColor=#ffe6cc;strokeColor=#d79b00;" vertex="1" parent="8-o7jdIBJL7mRIRe1M3B-10">
          <mxGeometry x="282.5" y="60" width="30" height="30" as="geometry" />
        </mxCell>
        <mxCell id="8-o7jdIBJL7mRIRe1M3B-7" style="edgeStyle=orthogonalEdgeStyle;rounded=0;orthogonalLoop=1;jettySize=auto;html=1;exitX=0;exitY=0.5;exitDx=0;exitDy=0;exitPerimeter=0;flowAnimation=1;" edge="1" parent="1" source="8-o7jdIBJL7mRIRe1M3B-1" target="8-o7jdIBJL7mRIRe1M3B-2">
          <mxGeometry relative="1" as="geometry" />
        </mxCell>
        <mxCell id="8-o7jdIBJL7mRIRe1M3B-8" style="edgeStyle=orthogonalEdgeStyle;rounded=0;orthogonalLoop=1;jettySize=auto;html=1;flowAnimation=1;" edge="1" parent="1" source="8-o7jdIBJL7mRIRe1M3B-1" target="8-o7jdIBJL7mRIRe1M3B-4">
          <mxGeometry relative="1" as="geometry" />
        </mxCell>
        <mxCell id="8-o7jdIBJL7mRIRe1M3B-1" value="Lambda Process" style="sketch=0;points=[[0,0,0],[0.25,0,0],[0.5,0,0],[0.75,0,0],[1,0,0],[0,1,0],[0.25,1,0],[0.5,1,0],[0.75,1,0],[1,1,0],[0,0.25,0],[0,0.5,0],[0,0.75,0],[1,0.25,0],[1,0.5,0],[1,0.75,0]];outlineConnect=0;fontColor=#232F3E;fillColor=#ED7100;strokeColor=#ffffff;dashed=0;verticalLabelPosition=bottom;verticalAlign=top;align=center;html=1;fontSize=12;fontStyle=1;aspect=fixed;shape=mxgraph.aws4.resourceIcon;resIcon=mxgraph.aws4.lambda;" vertex="1" parent="1">
          <mxGeometry x="436" y="360" width="78" height="78" as="geometry" />
        </mxCell>
        <mxCell id="8-o7jdIBJL7mRIRe1M3B-2" value="" style="sketch=0;outlineConnect=0;fontColor=#232F3E;gradientColor=none;fillColor=#E7157B;strokeColor=none;dashed=0;verticalLabelPosition=bottom;verticalAlign=top;align=center;html=1;fontSize=12;fontStyle=0;aspect=fixed;pointerEvents=1;shape=mxgraph.aws4.queue;" vertex="1" parent="1">
          <mxGeometry x="280" y="375.5" width="78" height="47" as="geometry" />
        </mxCell>
        <mxCell id="8-o7jdIBJL7mRIRe1M3B-5" style="edgeStyle=orthogonalEdgeStyle;rounded=0;orthogonalLoop=1;jettySize=auto;html=1;flowAnimation=1;" edge="1" parent="1" source="8-o7jdIBJL7mRIRe1M3B-3" target="8-o7jdIBJL7mRIRe1M3B-2">
          <mxGeometry relative="1" as="geometry" />
        </mxCell>
        <mxCell id="8-o7jdIBJL7mRIRe1M3B-3" value="Amazon SQS" style="sketch=0;outlineConnect=0;fontColor=#232F3E;gradientColor=none;strokeColor=#ffffff;fillColor=#232F3E;dashed=0;verticalLabelPosition=middle;verticalAlign=bottom;align=center;html=1;whiteSpace=wrap;fontSize=10;fontStyle=1;spacing=3;shape=mxgraph.aws4.productIcon;prIcon=mxgraph.aws4.sqs;" vertex="1" parent="1">
          <mxGeometry x="130" y="349" width="80" height="100" as="geometry" />
        </mxCell>
        <mxCell id="8-o7jdIBJL7mRIRe1M3B-4" value="Amazon RDS" style="sketch=0;outlineConnect=0;fontColor=#232F3E;gradientColor=none;strokeColor=#ffffff;fillColor=#232F3E;dashed=0;verticalLabelPosition=middle;verticalAlign=bottom;align=center;html=1;whiteSpace=wrap;fontSize=10;fontStyle=1;spacing=3;shape=mxgraph.aws4.productIcon;prIcon=mxgraph.aws4.rds;" vertex="1" parent="1">
          <mxGeometry x="590" y="349" width="80" height="100" as="geometry" />
        </mxCell>
        <mxCell id="8-o7jdIBJL7mRIRe1M3B-13" value="" style="shape=image;verticalLabelPosition=bottom;labelBackgroundColor=default;verticalAlign=top;aspect=fixed;imageAspect=0;image=https://pbs.twimg.com/profile_images/1547215976244346880/IKeCcNPj_200x200.png;" vertex="1" parent="1">
          <mxGeometry x="87.5" y="250" width="40" height="40" as="geometry" />
        </mxCell>
        <mxCell id="8-o7jdIBJL7mRIRe1M3B-14" value="LocalStack Container" style="text;html=1;align=center;verticalAlign=middle;whiteSpace=wrap;rounded=0;" vertex="1" parent="1">
          <mxGeometry x="127.5" y="255" width="122.5" height="30" as="geometry" />
        </mxCell>
        <mxCell id="8-o7jdIBJL7mRIRe1M3B-16" value="1" style="ellipse;whiteSpace=wrap;html=1;aspect=fixed;fillColor=#ffe6cc;strokeColor=#d79b00;" vertex="1" parent="1">
          <mxGeometry x="230" y="360" width="30" height="30" as="geometry" />
        </mxCell>
        <mxCell id="8-o7jdIBJL7mRIRe1M3B-19" value="3" style="ellipse;whiteSpace=wrap;html=1;aspect=fixed;fillColor=#ffe6cc;strokeColor=#d79b00;" vertex="1" parent="1">
          <mxGeometry x="540" y="360" width="30" height="30" as="geometry" />
        </mxCell>
        <mxCell id="8-o7jdIBJL7mRIRe1M3B-20" value="1" style="ellipse;whiteSpace=wrap;html=1;aspect=fixed;fillColor=#ffe6cc;strokeColor=#d79b00;" vertex="1" parent="1">
          <mxGeometry x="89.5" y="520" width="30" height="30" as="geometry" />
        </mxCell>
        <mxCell id="8-o7jdIBJL7mRIRe1M3B-22" value="2" style="ellipse;whiteSpace=wrap;html=1;aspect=fixed;fillColor=#ffe6cc;strokeColor=#d79b00;" vertex="1" parent="1">
          <mxGeometry x="89.5" y="560" width="30" height="30" as="geometry" />
        </mxCell>
        <mxCell id="8-o7jdIBJL7mRIRe1M3B-23" value="3" style="ellipse;whiteSpace=wrap;html=1;aspect=fixed;fillColor=#ffe6cc;strokeColor=#d79b00;" vertex="1" parent="1">
          <mxGeometry x="89.5" y="600" width="30" height="30" as="geometry" />
        </mxCell>
        <mxCell id="8-o7jdIBJL7mRIRe1M3B-24" value="SQS recive a message and enqueue." style="text;html=1;align=left;verticalAlign=middle;whiteSpace=wrap;rounded=0;fontStyle=1" vertex="1" parent="1">
          <mxGeometry x="127.5" y="520" width="232.5" height="30" as="geometry" />
        </mxCell>
        <mxCell id="8-o7jdIBJL7mRIRe1M3B-25" value="Lambda is triggered when that element is received in the queue." style="text;html=1;align=left;verticalAlign=middle;whiteSpace=wrap;rounded=0;fontStyle=1" vertex="1" parent="1">
          <mxGeometry x="129.5" y="560" width="292.5" height="30" as="geometry" />
        </mxCell>
        <mxCell id="8-o7jdIBJL7mRIRe1M3B-26" value="Lambda processes the data and inserts it in an RDS Cluster." style="text;html=1;align=left;verticalAlign=middle;whiteSpace=wrap;rounded=0;fontStyle=1" vertex="1" parent="1">
          <mxGeometry x="129.5" y="600" width="302.5" height="30" as="geometry" />
        </mxCell>
      </root>
    </mxGraphModel>
  </diagram>
</mxfile>
